<svg width="100" height="100" viewBox="0 0 100 100" xmlns="http://www.w3.org/2000/svg">
  <!-- RV Body -->
  <path d="M15 20 L85 20 Q90 20 90 25 L90 65 Q90 70 85 70 L15 70 Q10 70 10 65 L10 25 Q10 20 15 20 Z" fill="#F5DEB3" stroke="#8B4513" stroke-width="2"/>

  <!-- Front section -->
  <path d="M10 25 L30 25 Q35 25 35 30 L35 50 Q35 55 30 55 L10 55 Z" fill="#F5DEB3" stroke="#8B4513" stroke-width="2"/>

  <!-- Windshield -->
  <rect x="12" y="28" width="20" height="15" rx="2" ry="2" fill="#E6F3FF" stroke="#8B4513" stroke-width="1"/>

  <!-- Side windows -->
  <rect x="40" y="28" width="15" height="12" rx="2" ry="2" fill="#E6F3FF" stroke="#8B4513" stroke-width="1"/>
  <rect x="60" y="28" width="15" height="12" rx="2" ry="2" fill="#E6F3FF" stroke="#8B4513" stroke-width="1"/>

  <!-- Door -->
  <rect x="75" y="35" width="12" height="25" rx="1" ry="1" fill="#F5DEB3" stroke="#8B4513" stroke-width="1"/>
  <circle cx="78" cy="47" r="1.5" fill="#8B4513"/>

  <!-- Horizontal stripe -->
  <line x1="10" y1="47" x2="90" y2="47" stroke="#8B4513" stroke-width="1"/>

  <!-- Main tire (center) -->
  <circle cx="50" cy="80" r="12" fill="#696969" stroke="#8B4513" stroke-width="2"/>
  <circle cx="50" cy="80" r="8" fill="#DEB887" stroke="#8B4513" stroke-width="1"/>
  <circle cx="50" cy="80" r="3" fill="#8B4513"/>

  <!-- Front tire -->
  <circle cx="25" cy="80" r="8" fill="#CD853F" stroke="#8B4513" stroke-width="2"/>

  <!-- Rear tire -->
  <circle cx="75" cy="80" r="8" fill="#CD853F" stroke="#8B4513" stroke-width="2"/>

  <!-- Front headlight -->
  <circle cx="18" cy="52" r="3" fill="#FFD700" stroke="#8B4513" stroke-width="1"/>

  <!-- Rear light -->
  <circle cx="82" cy="52" r="3" fill="#FF6B6B" stroke="#8B4513" stroke-width="1"/>
</svg>